<svg id="o-0" xmlns="http://www.w3.org/2000/svg" viewBox="0 0 954.12 977.2"><defs><style>.cls-1{fill:#7a26c1;}</style></defs><g id="tight-bounds"><g id="textblocktransform"><path class="cls-1" d="M511.7,496.09a12.35,12.35,0,0,0-7.81-7.8L373.11,444.7a12.36,12.36,0,0,0-12.64,3l-43.59,43.6a12.34,12.34,0,0,0,4.82,20.42l125,41.63,41.64,125a12.34,12.34,0,0,0,8.87,8.09,12,12,0,0,0,2.84.34,12.35,12.35,0,0,0,8.71-3.61l43.62-43.59a12.36,12.36,0,0,0,3-12.64Zm-6.32,155.47L468.1,539.67a12.4,12.4,0,0,0-7.81-7.79L348.43,494.6l24.1-24.11,117.71,39.25,39.25,117.72Z" transform="translate(-22.82 -11.4)"/><path class="cls-1" d="M598.89,408.89a12.36,12.36,0,0,0-7.79-7.8l-130.81-43.6a12.43,12.43,0,0,0-12.6,3l-43.62,43.59a12.34,12.34,0,0,0,4.81,20.42l125,41.64,41.64,125a12.32,12.32,0,0,0,8.86,8.11,13.09,13.09,0,0,0,2.84.32,12.26,12.26,0,0,0,8.73-3.61l43.59-43.59a12.4,12.4,0,0,0,3-12.64Zm-6.31,155.46L555.3,452.49a12.39,12.39,0,0,0-7.79-7.79L435.62,407.4l24.11-24.09,117.72,39.23,39.23,117.71Z" transform="translate(-22.82 -11.4)"/><path class="cls-1" d="M686.11,321.7a12.38,12.38,0,0,0-7.82-7.81l-130.78-43.6a12.43,12.43,0,0,0-12.63,3l-43.6,43.61a12.32,12.32,0,0,0,4.81,20.41l125,41.64,41.65,125a12.37,12.37,0,0,0,8.88,8.11,12.86,12.86,0,0,0,2.83.32,12.31,12.31,0,0,0,8.71-3.61l43.59-43.59a12.34,12.34,0,0,0,3-12.63Zm-6.32,155.46L642.48,365.3a12.39,12.39,0,0,0-7.78-7.81L522.82,320.2l24.11-24.1,117.71,39.25,39.23,117.71Z" transform="translate(-22.82 -11.4)"/><path class="cls-1" d="M421.52,578.48a12.34,12.34,0,0,0-17.45,0L273.29,709.26a12.34,12.34,0,1,0,17.45,17.45L421.52,595.9A12.3,12.3,0,0,0,421.52,578.48Z" transform="translate(-22.82 -11.4)"/><path class="cls-1" d="M312.52,617.71l43.59-43.59a12.33,12.33,0,0,0-17.42-17.45l-43.6,43.59a12.33,12.33,0,1,0,17.43,17.45Z" transform="translate(-22.82 -11.4)"/><path class="cls-1" d="M425.88,643.86l-43.59,43.62a12.32,12.32,0,1,0,17.42,17.42l43.62-43.59a12.34,12.34,0,0,0-17.45-17.45Z" transform="translate(-22.82 -11.4)"/><path class="cls-1" d="M48.64,658.54l-4.67-12,95.51-25,4.81,12.42L77,686.79l85.24-6.63,4.85,12.51L79.77,738.83l-4.68-12.06,72.75-38.49.57,2.24-84.33,7.84-4.47-11.54L127,635.41l1,2.19Zm95.71,170.72h0a67.62,67.62,0,0,1-9.53-14,25,25,0,0,1-2.65-13.71q.68-6.95,6.6-15.19t18-18.64h0q12.13-10.41,21.21-15t16.27-4.36a25.19,25.19,0,0,1,13.34,4.54A65,65,0,0,1,220,764.32h0a66.78,66.78,0,0,1,9.69,14.27,24.28,24.28,0,0,1,2.39,13.79q-.89,7.08-6.83,15.35t-18.08,18.68h0Q195,836.82,186,841.41t-16,4.2a24.75,24.75,0,0,1-13.13-4.67,68.46,68.46,0,0,1-12.49-11.68Zm9.1-7.8h0a41.22,41.22,0,0,0,8.78,8,15,15,0,0,0,9.2,2.45q4.95-.25,11.43-4.08a114.6,114.6,0,0,0,15.55-11.6h0A118.34,118.34,0,0,0,212.85,802c3.23-4,5.19-7.58,5.89-10.74a14.3,14.3,0,0,0-1.16-9.31,45.84,45.84,0,0,0-6.67-9.8h0a43.15,43.15,0,0,0-8.36-7.7,14.73,14.73,0,0,0-9.05-2.59q-5,.21-11.69,4a105.9,105.9,0,0,0-16.34,12h0A119.88,119.88,0,0,0,151.6,791.4q-4.8,5.76-5.81,10.62a15,15,0,0,0,1,9.46,41.42,41.42,0,0,0,6.63,10Zm88.65,91.29-11.43-7L282,822.13l33.46,20.55a40.25,40.25,0,0,1,7.71,6.12,20.5,20.5,0,0,1,4.88,8.18,21,21,0,0,1,.32,10.71q-1.23,6.06-6.11,14h0a42.19,42.19,0,0,1-8,9.94,22.57,22.57,0,0,1-7.77,4.69,18.31,18.31,0,0,1-7.25.85,33.32,33.32,0,0,1-6.49-1.25h0L288.06,941l-11.58-7.11,5-42.7q-1.68-1-4.11-2.6c-1.59-1-3.28-2.1-5-3.19s-3.49-2.2-5.14-3.32-3.13-2.08-4.43-2.88h0Zm45.06-73.38-19,31,20.19,12.4a22.69,22.69,0,0,0,5.39,2.45,10.8,10.8,0,0,0,5.48.1,14.26,14.26,0,0,0,5.78-3.18,31,31,0,0,0,5.92-7.37h0a28.52,28.52,0,0,0,3.72-8.32,12.51,12.51,0,0,0,0-6.31,12.17,12.17,0,0,0-2.74-4.7,21.83,21.83,0,0,0-4.51-3.62h0Zm83.08,131.2-13-3.36,24.58-95,38.52,10a37.41,37.41,0,0,1,8.46,3.37A20.92,20.92,0,0,1,436,892a22.6,22.6,0,0,1,3.7,10.93q.72,6.79-1.91,17h0q-2.64,10.18-6.66,15.86a23.94,23.94,0,0,1-8.73,8.08,21.44,21.44,0,0,1-9.54,2.34,36.13,36.13,0,0,1-8.94-1.09h0q-2.06-.52-5.59-1.59t-7.3-2.28L384,938.81q-3.3-1.14-5-1.88h0Zm21.57-83.37-10.26,39.67,23.58,6.1a15.32,15.32,0,0,0,7.92.07,13.13,13.13,0,0,0,6.75-4.85q3-3.84,5-11.57h0q2-7.59,1.22-12.32a12.7,12.7,0,0,0-3.42-7.31,14.25,14.25,0,0,0-6.39-3.48h0ZM509.3,987.92l-13.4.68-5-98,13.39-.68,2.24,44,45.36-2.31-2.24-44L563,887l5,98-13.29.68-2.14-42-45.36,2.31Zm256.59-83.68-14.3,9.31-81-64.36,11.6-7.55L751,896.94,728.3,811.65l11.5-7.49Zm88.93-78.71-8.58,10.31-75.41-62.73,25.45-30.59a37.44,37.44,0,0,1,6.65-6.22,20.83,20.83,0,0,1,8.86-3.79,22.37,22.37,0,0,1,11.47,1.31q6.45,2.25,14.52,9h0q8.09,6.74,11.51,12.79a24.13,24.13,0,0,1,3.59,11.34,21.55,21.55,0,0,1-2,9.63,36.38,36.38,0,0,1-4.8,7.62h0q-1.36,1.64-3.82,4.37t-5.18,5.64L832,799.55c-1.62,1.66-2.91,2.91-3.85,3.76h0Zm-66.19-55.07,31.49,26.2,15.58-18.72a15.47,15.47,0,0,0,3.44-7.13,13.12,13.12,0,0,0-1.51-8.18c-1.47-2.87-4.25-6-8.34-9.42h0q-6-5-10.63-6.36a12.68,12.68,0,0,0-8.07,0,14.18,14.18,0,0,0-5.88,4.29h0ZM930.4,705.78l-5.11,12.44-90.74-37.28,4.14-10.09L926.51,655,857,626.39l5-12.31,90.75,37.28-4.11,10L860.84,677.2Z" transform="translate(-22.82 -11.4)"/><path class="cls-1" d="M114.45,393.58l-4.63,12L23.07,360.11l4.76-12.31,84.67,6.1L45.6,301.84l4.8-12.42,94.85,24.5-4.62,12-79-20.39,1.06-2,67.07,50.56-4.42,11.45-83.78-7.36.72-2.25Zm84.37-148.94h0a67.87,67.87,0,0,1-12.28,11.5,25.15,25.15,0,0,1-13,4.65q-6.93.39-15.9-4.14t-21-14.89h0q-12-10.29-17.94-18.48T111.92,208a25.06,25.06,0,0,1,2.41-13.77,64.65,64.65,0,0,1,9.38-13.88h0a66.36,66.36,0,0,1,12.48-11.64,24.25,24.25,0,0,1,13.19-4.44q7.08-.19,16.09,4.4t21,14.89h0q12,10.32,17.94,18.48T211,217.06a25.15,25.15,0,0,1-2.6,13.61A68.47,68.47,0,0,1,198.82,244.64Zm-9-7.73h0a40.71,40.71,0,0,0,6.49-9.82,14.94,14.94,0,0,0,1-9.39q-1-4.8-5.72-10.58a113.51,113.51,0,0,0-13.74-13.5h0a115,115,0,0,0-16.13-12q-6.63-3.85-11.43-4.12a14,14,0,0,0-8.93,2.51,44.69,44.69,0,0,0-8.59,8h0a41.84,41.84,0,0,0-6.3,9.38,14.62,14.62,0,0,0-1.16,9.26c.6,3.21,2.5,6.83,5.66,10.85a105,105,0,0,0,14.24,14.21h0a118.52,118.52,0,0,0,15.41,11.55q6.38,3.83,11.28,4.08a14.85,14.85,0,0,0,9.13-2.43A41.13,41.13,0,0,0,189.79,236.91Zm89-62.74-11.36,7-51-82.87,33.18-20.42a39.46,39.46,0,0,1,8.88-4.07,20.44,20.44,0,0,1,9.46-.68,21,21,0,0,1,9.6,4.54q4.82,3.77,9.65,11.65h0a41.31,41.31,0,0,1,5.21,11.52,22.17,22.17,0,0,1,.64,9,18.16,18.16,0,0,1-2.48,6.79,32.39,32.39,0,0,1-4,5.2h0l37.77,24.34-11.48,7.06-35.54-23.55c-1.12.69-2.51,1.52-4.15,2.47s-3.34,2-5.1,3.06-3.51,2.1-5.25,3.07-3.23,1.82-4.51,2.61h0ZM234,101.42l18.88,30.69,20-12.31a22.43,22.43,0,0,0,4.56-3.66,10.51,10.51,0,0,0,2.53-4.83,13.77,13.77,0,0,0-.21-6.52,29.84,29.84,0,0,0-3.84-8.57h0a27.2,27.2,0,0,0-5.74-7,11.38,11.38,0,0,0-10.95-2.49A21.51,21.51,0,0,0,254,89.11h0Zm153.62,23-12.92,3.35L350.26,33.64l38.21-9.91a38.33,38.33,0,0,1,9-1.18,21,21,0,0,1,9.34,2.1,22.12,22.12,0,0,1,8.46,7.68q3.9,5.52,6.53,15.64h0q2.63,10.1,1.86,17a24,24,0,0,1-3.71,11.19,21,21,0,0,1-7.14,6.63,36.14,36.14,0,0,1-8.29,3.37h0q-2,.53-5.58,1.3c-2.36.52-4.83,1-7.43,1.53l-7.3,1.36q-3.39.6-5.25.79h0ZM366.16,41.79l10.21,39.36,23.38-6.06a15.21,15.21,0,0,0,6.88-3.76,12.72,12.72,0,0,0,3.53-7.45q.73-4.79-1.26-12.46h0Q407,43.89,404,40.16a12.55,12.55,0,0,0-6.49-4.67,14.1,14.1,0,0,0-7.21,0h0ZM505.4,109.25l-13.33-.67L497,11.4l13.33.68-2.2,43.66,45,2.27,2.2-43.67,13.16.67-4.91,97.18-13.16-.67,2.11-41.68-45-2.27Zm221.68,72.37-14.15-9.22,25.92-99.26,11.5,7.5-22.63,84.52L796,110.41l11.41,7.44Zm73.28,64.89-8.53-10.27,74.87-62.15,25.21,30.37a38.49,38.49,0,0,1,4.9,7.63,21.27,21.27,0,0,1,2.07,9.35,22.2,22.2,0,0,1-3.36,10.92q-3.33,5.88-11.38,12.57h0q-8,6.66-14.57,8.89a24,24,0,0,1-11.71,1.4,20.84,20.84,0,0,1-9-3.65,35.55,35.55,0,0,1-6.56-6.06h0q-1.34-1.6-3.56-4.5c-1.47-1.91-3-3.94-4.54-6.07l-4.33-6c-1.32-1.88-2.31-3.36-3-4.42h0ZM866.07,192l-31.28,26,15.43,18.58a15.2,15.2,0,0,0,6.33,4.63,12.72,12.72,0,0,0,8.24,0q4.65-1.38,10.74-6.43h0q6-5,8.11-9.22a12.44,12.44,0,0,0,1.47-7.86,13.94,13.94,0,0,0-3.1-6.51h0ZM864.78,348l-5.06-12.35,90-36.88,4.11,10-51,72.36,69-28.27,5,12.22-90,36.87-4.06-9.9,51-72.37Z" transform="translate(-22.82 -11.4)"/><path class="cls-1" d="M22.82,513.18a37.48,37.48,0,1,1,37.47,37.47A37.46,37.46,0,0,1,22.82,513.18Zm875.73,0A37.48,37.48,0,1,1,936,550.65,37.46,37.46,0,0,1,898.55,513.18Z" transform="translate(-22.82 -11.4)"/></g></g></svg>